<?xml version="1.0" encoding="UTF-8"?>
<svg version="1.1" viewBox="0 0 300 200" xmlns="http://www.w3.org/2000/svg" xmlns:cc="http://creativecommons.org/ns#" xmlns:dc="http://purl.org/dc/elements/1.1/" xmlns:rdf="http://www.w3.org/1999/02/22-rdf-syntax-ns#" xmlns:xlink="http://www.w3.org/1999/xlink">
 <defs>
 <linearGradient id="a" x1="80.19" x2="72.684" y1="147.84" y2="80.698" gradientUnits="userSpaceOnUse">
 <stop offset="0"/>
 <stop stop-color="#333" offset="1"/>
 </linearGradient>
 <clipPath id="c">
 <path d="m31.625 931.49c-9.734 0-17.625 14.355-17.625 32.062 0 17.479 7.6897 31.698 17.25 32.062v0.25h37v-64.25h-35.031c-0.52277-0.0849-1.0588-0.125-1.5938-0.125z" fill="#00f" fill-rule="evenodd" stroke="#000" stroke-width="1px"/>
 </clipPath>
 <clipPath id="b">
 <path d="m68.125 931.49c9.734 0 17.625 14.355 17.625 32.062 0 17.479-7.6897 31.698-17.25 32.062v0.25h-37v-64.25h35.031c0.52277-0.0849 1.0588-0.125 1.5938-0.125z" fill="#00f" fill-rule="evenodd" stroke="#000" stroke-width="1px"/>
 </clipPath>
 </defs>
 <g transform="translate(0 -852.36)">
 <rect transform="translate(0 852.36)" x="20" y="30" width="260" height="150" fill-rule="evenodd" stroke="#666" stroke-width="1px"/>
 <rect x="20" y="882.36" width="260" height="25" fill-rule="evenodd" stroke="#666" stroke-width="1px"/>
 <path transform="translate(0 852.36)" d="m20 50h260" fill="#aaa" stroke="#888" stroke-width="1px"/>
 <path d="m20 898.36h260" fill="#aaa" stroke="#888" stroke-width="1px"/>
 <path d="m20 894.36h260" fill="#aaa" stroke="#888" stroke-width="1px"/>
 <path d="m141.97 889.3 5.03-2.94l5 3-10.031-0.0663z" fill="#666"/>
 <path transform="translate(0 852.36)" d="m147 34l-5.03 2.938h0.62l4.41-2.563 4.38 2.625h0.62l-5-3z" fill="#888"/>
 <rect x="94.75" y="931.61" width="114" height="64.25" fill="#eee" fill-rule="evenodd" stroke="#000" stroke-width="1px"/>
 <path d="m51.625 931.49c-9.734 0-17.625 14.355-17.625 32.062 0 17.479 7.6897 31.698 17.25 32.062v0.25h37v-64.25h-35.031c-0.52277-0.0849-1.0588-0.125-1.5938-0.125z" fill="#eee" fill-rule="evenodd" stroke="#000" stroke-width="1px"/>
 <path d="m252.12 931.49c9.734 0 17.625 14.355 17.625 32.062 0 17.479-7.6897 31.698-17.25 32.062v0.25h-37v-64.25h35.031c0.52277-0.0849 1.0588-0.125 1.5938-0.125z" fill="#eee" fill-rule="evenodd" stroke="#000" stroke-width="1px"/>
 <g transform="translate(20)" clip-path="url(#c)" fill-rule="evenodd">
 <path transform="matrix(1.199 0 0 1.199 -42.898 821.85)" d="m102.5 118.12c0 13.876-11.249 25.125-25.125 25.125-13.876 0.01-25.125-11.24-25.125-25.12 0-13.87 11.249-25.12 25.125-25.12s25.125 11.25 25.125 25.12z" fill="url(#a)"/>
 <path transform="matrix(.50249 0 0 .50249 10.995 904.13)" d="m102.5 118.12c0 13.876-11.249 25.125-25.125 25.125-13.876 0.01-25.125-11.24-25.125-25.12 0-13.87 11.249-25.12 25.125-25.12s25.125 11.25 25.125 25.12z" fill="#eee"/>
 </g>
 <g transform="translate(184)" clip-path="url(#b)" fill-rule="evenodd">
 <path transform="matrix(1.199 0 0 1.199 -42.898 821.85)" d="m94.994 118.12c0 9.7306-7.8882 17.619-17.619 17.619-9.7306 0-17.619-7.8882-17.619-17.619 0-9.7306 7.8882-17.619 17.619-17.619 9.7306 0 17.619 7.8882 17.619 17.619z" fill="url(#a)"/>
 <path transform="matrix(.50249 0 0 .50249 10.995 904.13)" d="m102.5 118.12c0 13.876-11.249 25.125-25.125 25.125-13.876 0.01-25.125-11.24-25.125-25.12 0-13.87 11.249-25.12 25.125-25.12s25.125 11.25 25.125 25.12z" fill="#eee"/>
 </g>
 <path d="m51.625 931.49c-9.734 0-17.625 14.355-17.625 32.062 0 17.479 7.6897 31.698 17.25 32.062v0.25h37v-64.25h-35.031c-0.52277-0.0849-1.0588-0.125-1.5938-0.125z" fill="#eee" fill-rule="evenodd" opacity=".3" stroke="#000" stroke-width="1px"/>
 <path d="m252.12 931.49c9.734 0 17.625 14.355 17.625 32.062 0 17.479-7.6897 31.698-17.25 32.062v0.25h-37v-64.25h35.031c0.52277-0.0849 1.0588-0.125 1.5938-0.125z" fill="#eee" fill-rule="evenodd" opacity=".3" stroke="#000" stroke-width="1px"/>
 <rect x="94.75" y="931.61" width="114" height="14.5" fill="#333" fill-rule="evenodd" stroke="#000" stroke-width="1px"/>
 <rect x="94.75" y="980.36" width="114" height="14.5" fill="#333" fill-rule="evenodd" stroke="#000" stroke-width="1px"/>
 <path transform="translate(0 852.36)" d="m100.25 101.5h103.75" fill="none" stroke="#000" stroke-width="1px"/>
 <path d="m100.25 957.86h103.75" fill="none" stroke="#000" stroke-width="1px"/>
 <path d="m100.25 961.86h103.75" fill="none" stroke="#000" stroke-width="1px"/>
 <path d="m100.25 965.86h103.75" fill="none" stroke="#000" stroke-width="1px"/>
 <path d="m100.25 969.86h103.75" fill="none" stroke="#000" stroke-width="1px"/>
 <path d="m100.25 973.86h103.75" fill="none" stroke="#000" stroke-width="1px"/>
 <text x="30.958817" y="890.42346" fill="#eeeeee" font-family="Bitstream Vera Sans" font-size="7.3052px" xml:space="preserve">
 <tspan x="30.958817" y="890.42346">Insert this side into recorder</tspan>
 </text>
 </g>
 <metadata>
 <rdf:RDF>
 <cc:Work>
 <dc:format>image/svg+xml</dc:format>
 <dc:type rdf:resource="http://purl.org/dc/dcmitype/StillImage"/>
 <cc:license rdf:resource="http://creativecommons.org/licenses/publicdomain/"/>
 <dc:publisher>
 <cc:Agent rdf:about="http://openclipart.org/">
 <dc:title>Openclipart</dc:title>
 </cc:Agent>
 </dc:publisher>
 <dc:title>Video Tape</dc:title>
 <dc:date>2010-08-12T01:25:58</dc:date>
 <dc:description>Video tape icon</dc:description>
 <dc:source>https://openclipart.org/detail/79555/video-tape-by-jhnri4</dc:source>
 <dc:creator>
 <cc:Agent>
 <dc:title>jhnri4</dc:title>
 </cc:Agent>
 </dc:creator>
 <dc:subject>
 <rdf:Bag>
 <rdf:li>VHS</rdf:li>
 <rdf:li>black and white</rdf:li>
 <rdf:li>cassette</rdf:li>
 <rdf:li>how i did it</rdf:li>
 <rdf:li>tape</rdf:li>
 <rdf:li>video</rdf:li>
 <rdf:li>videocassette</rdf:li>
 <rdf:li>videotape</rdf:li>
 </rdf:Bag>
 </dc:subject>
 </cc:Work>
 <cc:License rdf:about="http://creativecommons.org/licenses/publicdomain/">
 <cc:permits rdf:resource="http://creativecommons.org/ns#Reproduction"/>
 <cc:permits rdf:resource="http://creativecommons.org/ns#Distribution"/>
 <cc:permits rdf:resource="http://creativecommons.org/ns#DerivativeWorks"/>
 </cc:License>
 </rdf:RDF>
 </metadata>
</svg>
